<svg xmlns="http://www.w3.org/2000/svg" width="620" height="438"><path fill="#fff" stroke="gray" stroke-dasharray="2,2" d="M0 0h620v438H0z"/><path stroke="#878787" stroke-width="2" d="M63 177V68M190 68H63"/><path fill="#bababa" d="M77 43a14 14 90 0 1 14 14v11H35V57a14 14 90 0 1 14-14"/><path fill="#e0e0e0" d="M91 68v11a14 14 90 0 1-14 14H49a14 14 90 0 1-14-14V68h21"/><rect width="56" height="50" x="35" y="43" fill="none" stroke="#878787" stroke-width="2" rx="14"/><path stroke="#878787" d="M35 68h56"/><text x="42" y="60.75" font-family="Verdana" font-size="12">A LIEU</text><text x="68" y="127" fill="#b2182b" font-family="Verdana" font-size="12">0,N</text><text x="115" y="60" fill="#b2182b" font-family="Verdana" font-size="12">1,1</text><path stroke="#878787" stroke-width="2" d="M190 68h130M435 177 320 68"/><path fill="#bababa" d="M335 43a14 14 90 0 1 14 14v11h-58V57a14 14 90 0 1 14-14"/><path fill="#e0e0e0" d="M349 68v11a14 14 90 0 1-14 14h-30a14 14 90 0 1-14-14V68H58"/><rect width="58" height="50" x="291" y="43" fill="none" stroke="#878787" stroke-width="2" rx="14"/><path stroke="#878787" d="M291 68h58"/><text x="299" y="60.75" font-family="Verdana" font-size="12">FORME</text><text x="244" y="60" fill="#b2182b" font-family="Verdana" font-size="12">0,N</text><text x="406.82" y="144" fill="#b2182b" font-family="Verdana" font-size="12">1,1</text><path stroke="#b2182b" d="M406.82 146h21"/><path stroke="#878787" stroke-width="2" d="M435 177V68M555 68H435"/><path fill="#bababa" d="M444 43a14 14 90 0 1 14 14v11h-46V57a14 14 90 0 1 14-14"/><path fill="#e0e0e0" d="M458 68v11a14 14 90 0 1-14 14h-18a14 14 90 0 1-14-14V68H46"/><rect width="46" height="50" x="412" y="43" fill="none" stroke="#878787" stroke-width="2" rx="14"/><path stroke="#878787" d="M412 68h46"/><text x="420" y="60.75" font-family="Verdana" font-size="12">TYPE</text><text x="440" y="144" fill="#b2182b" font-family="Verdana" font-size="12">1,1</text><text x="484" y="85" fill="#b2182b" font-family="Verdana" font-size="12">0,N</text><path stroke="#878787" stroke-width="2" d="M190 68v109M190 286V177"/><path fill="#bababa" d="M225 152a14 14 90 0 1 14 14v11h-98v-11a14 14 90 0 1 14-14"/><path fill="#e0e0e0" d="M239 177v11a14 14 90 0 1-14 14h-70a14 14 90 0 1-14-14v-11H98"/><rect width="98" height="50" x="141" y="152" fill="none" stroke="#878787" stroke-width="2" rx="14"/><path stroke="#878787" d="M141 177h98"/><text x="149" y="169.75" font-family="Verdana" font-size="12">CAT_COMPET</text><text x="195" y="144" fill="#b2182b" font-family="Verdana" font-size="12">1,1</text><text x="195" y="236" fill="#b2182b" font-family="Verdana" font-size="12">0,N</text><path stroke="#878787" stroke-width="2" d="M320 286V177M190 68l130 109"/><path fill="#bababa" d="M355 152a14 14 90 0 1 14 14v11h-98v-11a14 14 90 0 1 14-14"/><path fill="#e0e0e0" d="M369 177v11a14 14 90 0 1-14 14h-70a14 14 90 0 1-14-14v-11H98"/><rect width="98" height="50" x="271" y="152" fill="none" stroke="#878787" stroke-width="2" rx="14"/><path stroke="#878787" d="M271 177h98"/><text x="279" y="169.75" font-family="Verdana" font-size="12">INSCRIPTION</text><text x="325" y="219" fill="#b2182b" font-family="Verdana" font-size="12">0,N</text><text x="244" y="107.28" fill="#b2182b" font-family="Verdana" font-size="12">0,N</text><path stroke="#878787" stroke-width="2" d="M555 286V177M435 177h120"/><path fill="#bababa" d="M579 152a14 14 90 0 1 14 14v11h-76v-11a14 14 90 0 1 14-14"/><path fill="#e0e0e0" d="M593 177v11a14 14 90 0 1-14 14h-48a14 14 90 0 1-14-14v-11H76"/><rect width="76" height="50" x="517" y="152" fill="none" stroke="#878787" stroke-width="2" rx="14"/><path stroke="#878787" d="M517 177h76"/><text x="525" y="169.75" font-family="Verdana" font-size="12">COMPOSE</text><text x="560" y="236" fill="#b2182b" font-family="Verdana" font-size="12">1,1</text><path stroke="#b2182b" d="M560 238h21"/><text x="469" y="194" fill="#b2182b" font-family="Verdana" font-size="12">1,N</text><path stroke="#878787" stroke-width="2" d="M190 68 63 286M63 395V286"/><path fill="#bababa" d="M103 261a14 14 90 0 1 14 14v11H9v-11a14 14 90 0 1 14-14"/><path fill="#e0e0e0" d="M117 286v11a14 14 90 0 1-14 14H23a14 14 90 0 1-14-14v-11h99"/><rect width="108" height="50" x="9" y="261" fill="none" stroke="#878787" stroke-width="2" rx="14"/><path stroke="#878787" d="M9 286h108"/><text x="17" y="278.75" font-family="Verdana" font-size="12">ARME_COMPET</text><text x="156.11" y="144" fill="#b2182b" font-family="Verdana" font-size="12">1,1</text><text x="68" y="353" fill="#b2182b" font-family="Verdana" font-size="12">0,N</text><path stroke="#878787" stroke-width="2" d="M320 286h115M555 286H435"/><path fill="#bababa" d="M455 261a14 14 90 0 1 14 14v11h-68v-11a14 14 90 0 1 14-14"/><path fill="#e0e0e0" d="M469 286v11a14 14 90 0 1-14 14h-40a14 14 90 0 1-14-14v-11H68"/><rect width="68" height="50" x="401" y="261" fill="none" stroke="#878787" stroke-width="2" rx="14"/><path stroke="#878787" d="M401 286h68"/><text x="408" y="278.75" font-family="Verdana" font-size="12">ARBITRE</text><text x="374" y="278" fill="#b2182b" font-family="Verdana" font-size="12">0,N</text><text x="496" y="303" fill="#b2182b" font-family="Verdana" font-size="12">1,1</text><path stroke="#878787" stroke-width="2" d="M320 286 190 395M190 286v109M63 395h127"/><path fill="#bababa" d="M224 361a14 14 90 0 1 14 14v11h-96v-11a14 14 90 0 1 14-14"/><path fill="#e0e0e0" d="M238 386v29a14 14 90 0 1-14 14h-68a14 14 90 0 1-14-14v-29H96"/><rect width="96" height="68" x="142" y="361" fill="none" stroke="#878787" stroke-width="2" rx="14"/><path stroke="#878787" d="M142 386h96"/><text x="149" y="378.75" font-family="Verdana" font-size="12">CLASSEMENT</text><text x="149" y="403.8" font-family="Verdana" font-size="12">classement</text><text x="149" y="420.8" font-family="Verdana" font-size="12">points</text><text x="244" y="325.28" fill="#b2182b" font-family="Verdana" font-size="12">0,N</text><text x="195" y="345" fill="#b2182b" font-family="Verdana" font-size="12">0,N</text><text x="103" y="412" fill="#b2182b" font-family="Verdana" font-size="12">0,N</text><path stroke="#878787" stroke-width="2" d="M435 395H320M320 286v109"/><path fill="#bababa" d="M353 370a14 14 90 0 1 14 14v11h-94v-11a14 14 90 0 1 14-14"/><path fill="#e0e0e0" d="M367 395v11a14 14 90 0 1-14 14h-66a14 14 90 0 1-14-14v-11H94"/><rect width="94" height="50" x="273" y="370" fill="none" stroke="#878787" stroke-width="2" rx="14"/><path stroke="#878787" d="M273 395h94"/><text x="280" y="387.75" font-family="Verdana" font-size="12">REPRESENTE</text><text x="376" y="412" fill="#b2182b" font-family="Verdana" font-size="12">0,N</text><text x="325" y="362" fill="#b2182b" font-family="Verdana" font-size="12">1,1</text><path stroke="#878787" stroke-width="2" d="m320 286 235 109M555 286v109"/><path fill="#bababa" d="M597 361a14 14 90 0 1 14 14v11H499v-11a14 14 90 0 1 14-14"/><path fill="#e0e0e0" d="M611 386v29a14 14 90 0 1-14 14h-84a14 14 90 0 1-14-14v-29H112"/><rect width="112" height="68" x="499" y="361" fill="none" stroke="#878787" stroke-width="2" rx="14"/><path stroke="#878787" d="M499 386h112"/><text x="507" y="378.75" font-family="Verdana" font-size="12">PARTICIPATION</text><text x="506" y="403.8" font-family="Verdana" font-size="12">statut</text><text x="506" y="420.8" font-family="Verdana" font-size="12">touches</text><text x="374" y="304.36" fill="#b2182b" font-family="Verdana" font-size="12">0,N</text><text x="560" y="345" fill="#b2182b" font-family="Verdana" font-size="12">2,2</text><path fill="#f4a582" stroke="gray" stroke-dasharray="2,2" d="M141 9h98v25h-98z"/><path fill="#fddbc7" stroke="gray" stroke-dasharray="2,2" d="M141 34h98v93h-98z"/><path fill="none" stroke="#d6604d" stroke-width="2" d="M141 9h98v118h-98z"/><path stroke="#d6604d" d="M141 34h98"/><text x="147" y="26.75" font-family="Verdana" font-size="12">COMPETITION</text><text x="146" y="51.8" font-family="Verdana" font-size="12">idCompet</text><path stroke="#000" d="M146 54h59"/><text x="146" y="68.8" font-family="Verdana" font-size="12">nomCompet</text><text x="146" y="85.8" font-family="Verdana" font-size="12">date</text><text x="146" y="102.8" font-family="Verdana" font-size="12">sexe</text><text x="146" y="119.8" font-family="Verdana" font-size="12">coefficient</text><path fill="#f4a582" stroke="gray" stroke-dasharray="2,2" d="M511 34h88v25h-88z"/><path fill="#fddbc7" stroke="gray" stroke-dasharray="2,2" d="M511 59h88v43h-88z"/><path fill="none" stroke="#d6604d" stroke-width="2" d="M511 34h88v68h-88z"/><path stroke="#d6604d" d="M511 59h88"/><text x="516" y="51.75" font-family="Verdana" font-size="12">TYPE_PHASE</text><text x="516" y="76.8" font-family="Verdana" font-size="12">libellePhase</text><path stroke="#000" d="M516 79h71"/><text x="516" y="93.8" font-family="Verdana" font-size="12">nbTouches</text><path fill="#f4a582" stroke="gray" stroke-dasharray="2,2" d="M32 135h62v25H32z"/><path fill="#fddbc7" stroke="gray" stroke-dasharray="2,2" d="M32 160h62v59H32z"/><path fill="none" stroke="#d6604d" stroke-width="2" d="M32 135h62v84H32z"/><path stroke="#d6604d" d="M32 160h62"/><text x="49" y="152.75" font-family="Verdana" font-size="12">LIEU</text><text x="37" y="177.8" font-family="Verdana" font-size="12">idLieu</text><path stroke="#000" d="M37 180h37"/><text x="37" y="194.8" font-family="Verdana" font-size="12">nomLieu</text><text x="37" y="211.8" font-family="Verdana" font-size="12">adresse</text><path fill="#f4a582" stroke="gray" stroke-dasharray="2,2" d="M406 152h58v25h-58z"/><path fill="#fddbc7" stroke="gray" stroke-dasharray="2,2" d="M406 177h58v25h-58z"/><path fill="none" stroke="#d6604d" stroke-width="2" d="M406 152h58v50h-58z"/><path stroke="#d6604d" d="M406 177h58"/><text x="415" y="169.75" font-family="Verdana" font-size="12">PHASE</text><text x="411" y="194.8" font-family="Verdana" font-size="12">idPhase</text><path stroke="#000" stroke-dasharray="4" d="M411 197h47"/><path fill="#f4a582" stroke="gray" stroke-dasharray="2,2" d="M149 244h82v25h-82z"/><path fill="#fddbc7" stroke="gray" stroke-dasharray="2,2" d="M149 269h82v59h-82z"/><path fill="none" stroke="#d6604d" stroke-width="2" d="M149 244h82v84h-82z"/><path stroke="#d6604d" d="M149 269h82"/><text x="154" y="261.75" font-family="Verdana" font-size="12">CATEGORIE</text><text x="154" y="286.8" font-family="Verdana" font-size="12">idCat</text><path stroke="#000" d="M154 289h32"/><text x="154" y="303.8" font-family="Verdana" font-size="12">libelleCat</text><text x="154" y="320.8" font-family="Verdana" font-size="12">ageMaxi</text><path fill="#f4a582" stroke="gray" stroke-dasharray="2,2" d="M271 227h98v25h-98z"/><path fill="#fddbc7" stroke="gray" stroke-dasharray="2,2" d="M271 252h98v93h-98z"/><path fill="none" stroke="#d6604d" stroke-width="2" d="M271 227h98v118h-98z"/><path stroke="#d6604d" d="M271 252h98"/><text x="284" y="244.75" font-family="Verdana" font-size="12">ESCRIMEUR</text><text x="276" y="269.8" font-family="Verdana" font-size="12">numLicence</text><path stroke="#000" d="M276 272h72"/><text x="276" y="286.8" font-family="Verdana" font-size="12">prenomEscr</text><text x="276" y="303.8" font-family="Verdana" font-size="12">nomEscr</text><text x="276" y="320.8" font-family="Verdana" font-size="12">sexe</text><text x="276" y="337.8" font-family="Verdana" font-size="12">dateNaissance</text><path fill="#f4a582" stroke="gray" stroke-dasharray="2,2" d="M522 244h66v25h-66z"/><path fill="#fddbc7" stroke="gray" stroke-dasharray="2,2" d="M522 269h66v59h-66z"/><path fill="none" stroke="#d6604d" stroke-width="2" d="M522 244h66v84h-66z"/><path stroke="#d6604d" d="M522 269h66"/><text x="533" y="261.75" font-family="Verdana" font-size="12">MATCH</text><text x="527" y="286.8" font-family="Verdana" font-size="12">id_Match</text><path stroke="#000" stroke-dasharray="4" d="M527 289h55"/><text x="527" y="303.8" font-family="Verdana" font-size="12">piste</text><text x="527" y="320.8" font-family="Verdana" font-size="12">etat</text><path fill="#f4a582" stroke="gray" stroke-dasharray="2,2" d="M28 361h70v25H28z"/><path fill="#fddbc7" stroke="gray" stroke-dasharray="2,2" d="M28 386h70v43H28z"/><path fill="none" stroke="#d6604d" stroke-width="2" d="M28 361h70v68H28z"/><path stroke="#d6604d" d="M28 386h70"/><text x="46" y="378.75" font-family="Verdana" font-size="12">ARME</text><text x="33" y="403.8" font-family="Verdana" font-size="12">idArme</text><path stroke="#000" d="M33 406h44"/><text x="33" y="420.8" font-family="Verdana" font-size="12">nomArme</text><path fill="#f4a582" stroke="gray" stroke-dasharray="2,2" d="M403 361h64v25h-64z"/><path fill="#fddbc7" stroke="gray" stroke-dasharray="2,2" d="M403 386h64v43h-64z"/><path fill="none" stroke="#d6604d" stroke-width="2" d="M403 361h64v68h-64z"/><path stroke="#d6604d" d="M403 386h64"/><text x="419" y="378.75" font-family="Verdana" font-size="12">CLUB</text><text x="408" y="403.8" font-family="Verdana" font-size="12">idClub</text><path stroke="#000" d="M408 406h39"/><text x="408" y="420.8" font-family="Verdana" font-size="12">nomClub</text></svg>